<svg xmlns="http://www.w3.org/2000/svg" width="118.515" height="98.267" viewBox="0 0 118.515 98.267"><g transform="translate(0.003 -4.016)"><g transform="translate(-0.003 4.016)"><g transform="translate(0 7.29)"><path d="M80.023,15.48a2.447,2.447,0,0,0-1-.605L56.39,7.769a16.079,16.079,0,0,0-16.523,3.706,9.389,9.389,0,0,0-2,2.751L27.79,37.938a6.05,6.05,0,0,0,.524,4.967A9.705,9.705,0,0,0,34.737,48a9.385,9.385,0,0,0,8.9-2.8A9.217,9.217,0,0,0,45.2,43.187L48.587,36.9a13.188,13.188,0,0,1,2.219-2.973c2.907-2.91,4.289-1.578,4.876-1.014,5.071,4.894,31.654,31.59,31.654,31.59.946.946.749,2.738-.434,3.918s-2.975,1.379-3.918.439L75.515,61.4a2.459,2.459,0,1,0-3.48,3.477L79.5,72.345c.943.94.746,2.733-.434,3.911s-2.978,1.379-3.916.439l-7.471-7.466a2.46,2.46,0,0,0-3.48,3.48l7.468,7.468c.943.943.739,2.736-.439,3.916s-2.97,1.379-3.916.434L59.85,77.06a2.459,2.459,0,0,0-3.48,3.477l7.468,7.471c.946.946.744,2.738-.434,3.918s-2.978,1.379-3.918.436l-9.092-9.1a5.4,5.4,0,0,0-.981-6.717c-2.158-2.156-5.479-2.355-7.4-.429,1.921-1.924,1.732-5.239-.431-7.4s-5.476-2.357-7.4-.436c1.921-1.921,1.727-5.234-.439-7.393s-5.471-2.36-7.4-.439c1.926-1.921,1.727-5.234-.434-7.4a5.322,5.322,0,0,0-6.994-.756L4.2,37.57A2.462,2.462,0,0,0,.716,41.052L15.4,55.734l-4.354,4.354c-1.921,1.919-1.727,5.232.439,7.4s5.471,2.357,7.4.434c-1.924,1.924-1.727,5.234.436,7.4s5.474,2.36,7.4.436c-1.924,1.924-1.73,5.234.434,7.4s5.476,2.36,7.4.439c-1.921,1.919-1.727,5.229.436,7.4s5.471,2.357,7.4.434l4.6-4.6,9.029,9.027c2.882,2.882,7.756,2.68,10.877-.436a8.32,8.32,0,0,0,2.446-5.383,8.446,8.446,0,0,0,7.839-7.834A8.42,8.42,0,0,0,85,74.359a8.29,8.29,0,0,0,5.388-2.451c3.116-3.116,3.308-8,.434-10.875l-3.807-3.81,15.633-15.63a2.461,2.461,0,0,0,0-3.48Z" transform="translate(0.003 -6.907)" fill="#014687"/></g><g transform="translate(81.785)"><path d="M67.724,25.38,47.8,5.459a4.923,4.923,0,0,0-6.964,0l-6.964,6.959a4.925,4.925,0,0,0,0,6.962L53.8,39.306a4.928,4.928,0,0,0,6.964,0l6.962-6.962A4.932,4.932,0,0,0,67.724,25.38ZM57.268,35.526a4.041,4.041,0,1,1,4.042-4.039A4.04,4.04,0,0,1,57.268,35.526Z" transform="translate(-32.434 -4.016)" fill="#014687"/></g></g></g></svg>