<svg xmlns="http://www.w3.org/2000/svg" width="120.328" height="109.283" viewBox="0 0 120.328 109.283"><g transform="translate(0 -23.5)"><g transform="translate(0 34.076)"><path d="M51.386,75.55H33.525a3.525,3.525,0,1,1,0-7.05H51.386a3.525,3.525,0,1,1,0,7.05Z" transform="translate(-22.95 -68.5)" fill="#b81d19"/><path d="M51.386,195.55H33.525a3.525,3.525,0,1,1,0-7.05H51.386a3.525,3.525,0,1,1,0,7.05Z" transform="translate(-22.95 -160.298)" fill="#b81d19"/><path d="M21.386,135.55H3.525a3.525,3.525,0,1,1,0-7.05H21.386a3.525,3.525,0,1,1,0,7.05Z" transform="translate(0 -114.399)" fill="#b81d19"/></g><g transform="translate(3.76 28.789)"><path d="M181.35,47.188a7.053,7.053,0,0,0-8.9.881L153.065,67.458a7.05,7.05,0,1,0,9.97,9.97l15.3-15.3,10.95,7.888,14.976-6.962Z" transform="translate(-119.273 -46.005)" fill="#b81d19"/><path d="M63.894,242.289,18.065,288.117a7.05,7.05,0,0,0,9.97,9.97l40.843-40.843Z" transform="translate(-16 -196.159)" fill="#b81d19"/></g><g transform="translate(46.063 23.5)"><path d="M263.215,134.683H241.828v-14.1A7.055,7.055,0,0,0,229.79,115.6l-28.2,28.2a7.048,7.048,0,0,0,0,9.97l16.167,16.167-19.692,19.692a7.05,7.05,0,0,0,9.97,9.97l24.677-24.677a7.048,7.048,0,0,0,0-9.97l-16.167-16.167L227.727,137.6v4.131a7.051,7.051,0,0,0,7.051,7.05h28.437a7.05,7.05,0,0,0,0-14.1Z" transform="translate(-196 -92.38)" fill="#b81d19"/><circle cx="10.576" cy="10.576" r="10.576" transform="translate(45.828)" fill="#b81d19"/></g></g></svg>