<svg xmlns="http://www.w3.org/2000/svg" width="623.278" height="1015.353" viewBox="0 0 623.278 1015.353"><g transform="translate(360.514 -1067.819)"><path d="M268.984,0C417.54,0,537.968,268.984,537.968,268.984S417.54,537.968,268.984,537.968,0,417.54,0,268.984,120.428,0,268.984,0Z" transform="matrix(0.174, -0.985, 0.985, 0.174, -360.447, 1867.808)" fill="#f6f6f6" opacity="0.39"/><g transform="translate(-2270.841 554)" opacity="0.4"><text transform="matrix(0.914, -0.407, 0.407, 0.914, 2363.695, 1023.175)" fill="#ffa726" font-size="77" font-family="Poppins-Regular, Poppins"><tspan x="0" y="0">+</tspan></text><g transform="translate(2222 1428.796)" fill="none" stroke="#f06292" stroke-width="6"><circle cx="50.188" cy="50.188" r="50.188" stroke="none"/><circle cx="50.188" cy="50.188" r="47.188" fill="none"/></g><g transform="translate(2328.283 1185.127) rotate(50)" fill="none"><path d="M29.444,0,58.888,50.857H0Z" stroke="none"/><path d="M 29.44381332397461 9.979316711425781 L 8.672237396240234 45.85749435424805 L 50.21538543701172 45.85749435424805 L 29.44381332397461 9.979316711425781 M 29.44381332397461 -3.814697265625e-06 L 58.88762664794922 50.85749435424805 L 0 50.85749435424805 L 29.44381332397461 -3.814697265625e-06 Z" stroke="none" fill="#42a5f5"/></g></g><g transform="translate(1989.867 3563.799) rotate(-177)" opacity="0.17"><g transform="translate(2997.55 544.166) rotate(40)"><rect width="50.636" height="312.983" rx="25.318" transform="translate(378 1622.574)" fill="#f06292"/><rect width="50.636" height="312.983" rx="25.318" transform="translate(441.62 1549)" fill="#ffa726"/><rect width="50.636" height="312.983" rx="25.318" transform="translate(504.808 1595.309)" fill="#b388ff"/><rect width="50.636" height="312.983" rx="25.318" transform="translate(568.428 1565.013)" fill="#42a5f5"/></g></g></g></svg>