<svg xmlns="http://www.w3.org/2000/svg" width="128.424" height="115.582" viewBox="0 0 128.424 115.582"><g transform="translate(314 -1075.719)"><path d="M109.449,189.422h4.281V193.7h-4.281Zm0,0" transform="translate(-399.905 926.965)" fill="#6d60b0"/><path d="M149.25,189.422h4.28V193.7h-4.28Zm0,0" transform="translate(-431.144 926.965)" fill="#6d60b0"/><path d="M189.051,189.422h4.28V193.7h-4.28Zm0,0" transform="translate(-462.383 926.965)" fill="#6d60b0"/><path d="M119.4,418.273h10.7v4.281H119.4Zm0,0" transform="translate(-407.717 747.343)" fill="#6d60b0"/><path d="M208.949,418.273h10.7v4.281h-10.7Zm0,0" transform="translate(-478.001 747.343)" fill="#6d60b0"/><path d="M298.5,418.273h10.7v4.281H298.5Zm0,0" transform="translate(-548.288 747.343)" fill="#6d60b0"/><path d="M388.051,418.273h10.7v4.281h-10.7Zm0,0" transform="translate(-618.575 747.343)" fill="#6d60b0"/><path d="M208.949,338.672h10.7v10.7h-10.7Zm0,0" transform="translate(-478.001 809.821)" fill="#b81d19"/><path d="M119.4,338.672h10.7v10.7H119.4Zm0,0" transform="translate(-407.717 809.821)" fill="#b81d19"/><path d="M388.051,338.672h10.7v10.7h-10.7Zm0,0" transform="translate(-618.575 809.821)" fill="#b81d19"/><path d="M298.5,338.672h10.7v10.7H298.5Zm0,0" transform="translate(-548.288 809.821)" fill="#b81d19"/><path d="M368.381,40.289a29.966,29.966,0,1,1-29.966-29.965A29.966,29.966,0,0,1,368.381,40.289Zm0,0" transform="translate(-556.097 1067.536)" fill="#b81d19"/><path d="M377.462,47.391a15.139,15.139,0,0,1,2.825.3l-3.163,1.991,2.281,3.624,7.224-4.549a2.142,2.142,0,0,0,.67-2.952c-.026-.04-.054-.082-.081-.12l-5.261-7.223L378.5,40.98l1.713,2.337a19.258,19.258,0,0,0-18.521,30.115l3.5-2.459a14.982,14.982,0,0,1,12.272-23.583Zm0,0" transform="translate(-595.144 1045.452)" fill="#fff"/><path d="M426.015,97.055l-3.5,2.459A14.906,14.906,0,0,1,407.416,122.8l3.161-1.993-2.279-3.622-7.224,4.549a2.141,2.141,0,0,0-.672,2.952c.026.04.054.082.081.12l5.261,7.223,3.461-2.521-1.713-2.338a19.264,19.264,0,0,0,18.513-30.113Zm0,0" transform="translate(-628.012 999.463)" fill="#fff"/><path d="M119.109,480.865H16.371a6.421,6.421,0,0,1-6.422-6.422v-6.421h44.7a3.869,3.869,0,0,1,3.463,2.14,3.871,3.871,0,0,0,3.463,2.14H73.908a3.873,3.873,0,0,0,3.464-2.14,3.869,3.869,0,0,1,3.463-2.14h44.7v6.421A6.421,6.421,0,0,1,119.109,480.865Zm0,0" transform="translate(-321.809 708.295)" fill="#b81d19"/><path d="M474.07,468.023v6.421a6.421,6.421,0,0,1-6.422,6.422h10.7a6.421,6.421,0,0,0,6.421-6.422v-6.421Zm0,0" transform="translate(-681.05 708.295)" fill="#b81d19"/><path d="M8.562,201.861H111.3a8.562,8.562,0,0,0,8.562-8.562v-6.421a2.141,2.141,0,0,0-2.14-2.14h-4.281V152.632H109.16v32.105h-4.28V154.772H100.6v29.965H73.026a5.982,5.982,0,0,0-5.376,3.324,1.723,1.723,0,0,1-1.55.957H53.762a1.722,1.722,0,0,1-1.549-.957,5.983,5.983,0,0,0-5.376-3.324H19.264V122.666H59.932v-4.281H17.123a2.141,2.141,0,0,0-2.14,2.14v64.212H10.7V120.526a6.421,6.421,0,0,1,6.421-6.421H59.931v-4.281H17.123a10.712,10.712,0,0,0-10.7,10.7v64.212H2.14A2.142,2.142,0,0,0,0,186.878V193.3A8.562,8.562,0,0,0,8.562,201.861Zm-4.28-12.842H46.836a1.72,1.72,0,0,1,1.549.957,5.981,5.981,0,0,0,5.377,3.323H66.1a5.98,5.98,0,0,0,5.376-3.323,1.72,1.72,0,0,1,1.549-.957h42.556v4.28a4.28,4.28,0,0,1-4.281,4.281H8.562A4.28,4.28,0,0,1,4.28,193.3v-4.28Zm0,0" transform="translate(-314 989.44)" fill="#b81d19"/><path d="M109.449,189.422h4.281V193.7h-4.281Zm0,0" transform="translate(-399.905 926.965)" fill="#b81d19"/><path d="M149.25,189.422h4.28V193.7h-4.28Zm0,0" transform="translate(-431.144 926.965)" fill="#b81d19"/><path d="M189.051,189.422h4.28V193.7h-4.28Zm0,0" transform="translate(-462.383 926.965)" fill="#b81d19"/><path d="M109.449,418.273h14.983v4.281H109.449Zm0,0" transform="translate(-399.905 747.343)" fill="#b81d19"/><path d="M199,418.273h14.982v4.281H199Zm0,0" transform="translate(-470.192 747.343)" fill="#b81d19"/><path d="M288.551,418.273h14.982v4.281H288.551Zm0,0" transform="translate(-540.479 747.343)" fill="#b81d19"/><path d="M378.1,418.273h14.983v4.281H378.1Zm0,0" transform="translate(-610.763 747.343)" fill="#b81d19"/><path d="M213.982,330.863a2.141,2.141,0,0,0-2.14-2.14h-10.7a2.141,2.141,0,0,0-2.14,2.14v10.7a2.141,2.141,0,0,0,2.14,2.14h10.7a2.141,2.141,0,0,0,2.14-2.14Zm-4.28,8.562H203.28V333H209.7Zm0,0" transform="translate(-470.192 817.63)" fill="#b81d19"/><path d="M124.432,330.863a2.141,2.141,0,0,0-2.14-2.14h-10.7a2.141,2.141,0,0,0-2.141,2.14v10.7a2.141,2.141,0,0,0,2.141,2.14h10.7a2.141,2.141,0,0,0,2.14-2.14Zm-4.281,8.562H113.73V333h6.421Zm0,0" transform="translate(-399.905 817.63)" fill="#b81d19"/><path d="M390.944,343.705a2.141,2.141,0,0,0,2.14-2.14v-10.7a2.141,2.141,0,0,0-2.14-2.14h-10.7a2.141,2.141,0,0,0-2.14,2.14v10.7a2.141,2.141,0,0,0,2.14,2.14ZM382.382,333H388.8v6.422h-6.422Zm0,0" transform="translate(-610.767 817.63)" fill="#b81d19"/><path d="M303.533,330.863a2.141,2.141,0,0,0-2.14-2.14h-10.7a2.141,2.141,0,0,0-2.14,2.14v10.7a2.141,2.141,0,0,0,2.14,2.14h10.7a2.141,2.141,0,0,0,2.14-2.14Zm-4.28,8.562h-6.422V333h6.422Zm0,0" transform="translate(-540.479 817.63)" fill="#b81d19"/><path d="M330.606.371a32.106,32.106,0,1,0,32.106,32.106A32.107,32.107,0,0,0,330.606.371Zm0,59.931a27.825,27.825,0,1,1,27.825-27.826A27.825,27.825,0,0,1,330.606,60.3Zm0,0" transform="translate(-548.288 1075.348)" fill="#b81d19"/></g></svg>