<svg xmlns="http://www.w3.org/2000/svg" width="111.928" height="111.284" viewBox="0 0 111.928 111.284"><g transform="translate(0 -0.092)"><g transform="translate(0 0.092)"><path d="M111.928,34.386a10.785,10.785,0,0,0-16.821-8.972H95.1c0,.01-.007.01-.007.017a11.348,11.348,0,0,0-1.98,1.7l.028.028a96.039,96.039,0,0,0-8.43,8.475A10.829,10.829,0,0,0,82.2,31.808c-10.679-9.4-23.515-13.221-38.23-13.221A64.791,64.791,0,0,0,30.119,20.07c-.129-1.6-.22-2.571-.22-2.571H1.256a218.918,218.918,0,0,0,0,46.828H29.9s.252-2.728.525-6.621c4.264-.717,8.622.406,13.669,3.54a41.616,41.616,0,0,0,22.8,6.653A38.282,38.282,0,0,0,89.136,61.06l.007.007c.066-.052.143-.108.238-.182A41.2,41.2,0,0,0,94.324,56.8c1.214-1.238,2.847-2.823,5.313-5.229,8.258-8.115,9.276-9.727,9.276-9.727a.223.223,0,0,1-.031.007A10.634,10.634,0,0,0,111.928,34.386Zm-6.572,4.243c-1.448,1.434-7.576,7.748-9.231,9.367-4.3,4.222-6.3,6.194-7.247,7.289l-.014-.021c-.658.588-1.347,1.126-2.05,1.644a36.171,36.171,0,0,1-39.983-.084h-.042c-4.809-2.942-10.451-4.736-16.034-4.187.22-3.858.4-8.087.4-11.714,0-5.037-.35-11.231-.675-15.974a61.416,61.416,0,0,1,13.491-1.5c14.411,0,27.149,4.764,34.96,12.225a5.769,5.769,0,0,1-4.3,9.65c-.122,0-.234-.031-.36-.038l-.014.073c-2.987-.1-7.653-1.361-15.537-4.372l-1.794,4.687c8.339,3.183,13.827,4.61,17.72,4.711v-.035a10.846,10.846,0,0,0,10.336-7.7v.007c1.686-2.8,8-8.646,11.585-11.833l.007.007c.038-.038.073-.066.094-.091.665-.6,1.238-1.095,1.654-1.455a4.813,4.813,0,0,1,2.791-.675,5.8,5.8,0,0,1,5.789,5.792A7.244,7.244,0,0,1,105.355,38.629Z" transform="translate(0 43.386)" fill="#b81d19"/><path d="M45.1,64.867A32.387,32.387,0,1,0,12.713,32.481,32.425,32.425,0,0,0,45.1,64.867Zm0-59.129A26.744,26.744,0,1,1,18.358,32.481,26.781,26.781,0,0,1,45.1,5.737Z" transform="translate(31.754 -0.092)" fill="#b81d19"/><path d="M20.746,19.58a10.115,10.115,0,0,0,2.966,2.228,16.315,16.315,0,0,0,5.131,1.5,16.823,16.823,0,0,1,1.822.4,7.468,7.468,0,0,1,1.7.658,4.364,4.364,0,0,1,1.263,1,2.047,2.047,0,0,1,.493,1.375,1.762,1.762,0,0,1-.944,1.532,4.5,4.5,0,0,1-2.385.581,9.944,9.944,0,0,1-1.955-.171,5.72,5.72,0,0,1-1.536-.525,7.443,7.443,0,0,1-1.361-.909,13.516,13.516,0,0,1-1.347-1.3H19.312v7.926h5.282V32.7c.252.129.511.252.787.364.252.115.525.231.8.357v3.1h5.282V34.138a9.751,9.751,0,0,0,3.148-.717,8.229,8.229,0,0,0,2.515-1.584,7.28,7.28,0,0,0,1.661-2.281,6.55,6.55,0,0,0,.609-2.809,9.277,9.277,0,0,0-.287-2.057,6.553,6.553,0,0,0-1.3-2.567,9.922,9.922,0,0,0-2.959-2.41,15.1,15.1,0,0,0-5.226-1.605q-5.289-.787-5.282-3.239a2.167,2.167,0,0,1,.839-1.626,3.573,3.573,0,0,1,2.431-.752,8.688,8.688,0,0,1,1.906.185,6.718,6.718,0,0,1,1.49.546,6.056,6.056,0,0,1,1.284.909c.4.364.811.787,1.242,1.263h5.317V7.468H33.58V8.6a8.9,8.9,0,0,0-2.116-.909V4.82H26.185V7.314a9.2,9.2,0,0,0-2.84.888,8.165,8.165,0,0,0-2.26,1.661,7.12,7.12,0,0,0-1.494,2.281,6.9,6.9,0,0,0-.528,2.718,9.286,9.286,0,0,0,.322,2.242A6.287,6.287,0,0,0,20.746,19.58Z" transform="translate(47.617 11.717)" fill="#b81d19"/></g></g></svg>