<svg xmlns="http://www.w3.org/2000/svg" width="119.5" height="119.5" viewBox="0 0 119.5 119.5"><g transform="translate(1 1)"><path d="M20.666,90.867a9.581,9.581,0,0,0-4.629,1.182,54.185,54.185,0,0,1,53.5-86.385,2.3,2.3,0,0,0,.909-4.5A59.187,59.187,0,0,0,58.75,0a58.75,58.75,0,0,0-46.108,95.16,9.643,9.643,0,1,0,8.023-4.292Zm3.57,13.208a5.048,5.048,0,1,1,1.479-3.57A5.014,5.014,0,0,1,24.235,104.076Zm0,0" fill="#fff" stroke="#fff" stroke-width="2"/><path d="M257.018,47.033a9.619,9.619,0,1,0-3.392,3.113,54.185,54.185,0,0,1-53.4,86.406,2.3,2.3,0,1,0-.9,4.5,59.228,59.228,0,0,0,11.584,1.142,58.75,58.75,0,0,0,46.106-95.163ZM245.427,45.26A5.05,5.05,0,1,1,249,46.738a5.016,5.016,0,0,1-3.57-1.478Zm0,0" transform="translate(-152.163 -24.696)" fill="#fff" stroke="#fff" stroke-width="2"/><path d="M106.285,155.241a2.3,2.3,0,0,0,2.295,2.295h14.35a2.3,2.3,0,0,0,2.295-2.295v-4.449a35.937,35.937,0,0,0,8.613-3.57l3.141,3.141a2.294,2.294,0,0,0,3.246,0l10.143-10.15a2.3,2.3,0,0,0,0-3.245l-3.138-3.138a35.937,35.937,0,0,0,3.57-8.613h4.432a2.3,2.3,0,0,0,2.295-2.295v-14.35a2.3,2.3,0,0,0-2.295-2.295H150.8a35.943,35.943,0,0,0-3.569-8.612l3.121-3.121a2.3,2.3,0,0,0,0-3.247L140.2,81.155a2.3,2.3,0,0,0-3.245,0l-3.116,3.117a35.938,35.938,0,0,0-8.613-3.57V76.295A2.3,2.3,0,0,0,122.93,74H108.58a2.3,2.3,0,0,0-2.295,2.295V80.7a35.907,35.907,0,0,0-8.612,3.569l-3.117-3.117a2.3,2.3,0,0,0-3.245,0L81.161,91.3a2.294,2.294,0,0,0,0,3.246l3.121,3.121a35.932,35.932,0,0,0-3.57,8.612H76.287a2.3,2.3,0,0,0-2.295,2.294l-.008,14.35a2.294,2.294,0,0,0,2.295,2.3h4.432a35.938,35.938,0,0,0,3.57,8.613l-3.138,3.138a2.3,2.3,0,0,0,0,3.245l10.143,10.15a2.3,2.3,0,0,0,1.623.673h0a2.3,2.3,0,0,0,1.623-.672l3.14-3.141a35.968,35.968,0,0,0,8.613,3.57ZM98.572,142.4a2.3,2.3,0,0,0-2.869.3l-2.794,2.794-6.9-6.9L88.8,135.8a2.294,2.294,0,0,0,.3-2.868,31.412,31.412,0,0,1-4.347-10.491,2.3,2.3,0,0,0-2.244-1.813H78.575l.005-9.76h3.936a2.3,2.3,0,0,0,2.244-1.813,31.415,31.415,0,0,1,4.347-10.49,2.294,2.294,0,0,0-.3-2.868l-2.774-2.775,6.9-6.9L95.7,88.8a2.3,2.3,0,0,0,2.869.3,31.4,31.4,0,0,1,10.49-4.347,2.3,2.3,0,0,0,1.813-2.244V78.59h9.76v3.918a2.294,2.294,0,0,0,1.813,2.244,31.425,31.425,0,0,1,10.49,4.347,2.293,2.293,0,0,0,2.868-.3l2.772-2.771,6.9,6.9L142.707,95.7a2.294,2.294,0,0,0-.3,2.869,31.434,31.434,0,0,1,4.347,10.49,2.294,2.294,0,0,0,2.244,1.813h3.944v9.76h-3.944a2.3,2.3,0,0,0-2.244,1.813,31.407,31.407,0,0,1-4.347,10.49,2.3,2.3,0,0,0,.3,2.869l2.792,2.792-6.9,6.9-2.794-2.793a2.294,2.294,0,0,0-2.869-.3,31.435,31.435,0,0,1-10.49,4.347,2.3,2.3,0,0,0-1.813,2.244v3.96h-9.76v-3.96a2.3,2.3,0,0,0-1.813-2.244,31.415,31.415,0,0,1-10.49-4.347Zm0,0" transform="translate(-57.006 -57.018)" fill="#fff" stroke="#fff" stroke-width="2"/><path d="M211.3,192.334A18.963,18.963,0,1,0,192.334,211.3,18.984,18.984,0,0,0,211.3,192.334Zm-33.336,0a14.373,14.373,0,1,1,14.373,14.373A14.389,14.389,0,0,1,177.961,192.334Zm0,0" transform="translate(-133.584 -133.584)" fill="#fff" stroke="#fff" stroke-width="2"/><path d="M340.373,22.4a2.3,2.3,0,1,0-1.622-.672A2.312,2.312,0,0,0,340.373,22.4Zm0,0" transform="translate(-260.492 -13.722)" fill="#fff" stroke="#fff" stroke-width="2"/><path d="M156.654,474.359a2.3,2.3,0,1,0,1.623.672A2.313,2.313,0,0,0,156.654,474.359Zm0,0" transform="translate(-118.935 -365.497)" fill="#fff" stroke="#fff" stroke-width="2"/></g></svg>