<svg xmlns="http://www.w3.org/2000/svg" width="87.613" height="142.813" viewBox="0 0 87.613 142.813"><g transform="translate(-98.948)"><g transform="translate(98.948 24.584)"><path d="M186.561,131.943a43.807,43.807,0,1,0-67.719,36.709v13.8a23.912,23.912,0,0,0,47.824,0V174.7s0-6.049,0-6.049A43.958,43.958,0,0,0,186.561,131.943Zm-28.34,50.511a15.467,15.467,0,0,1-30.934,0v-3.53h30.934Zm2.119-19.825a4.222,4.222,0,0,0-2.119,3.662v4.189H146.977V148.645a13.7,13.7,0,0,0,9.458-13.01,4.222,4.222,0,1,0-8.445,0,5.235,5.235,0,1,1-10.471,0,4.222,4.222,0,1,0-8.445,0,13.7,13.7,0,0,0,9.458,13.01v21.834H127.288V166.29a4.222,4.222,0,0,0-2.119-3.661,35.362,35.362,0,1,1,35.172,0Z" transform="translate(-98.948 -88.136)" fill="#fff"/></g><g transform="translate(138.532)"><path d="M245.083,0a4.223,4.223,0,0,0-4.222,4.222v7.413a4.222,4.222,0,0,0,8.445,0V4.222A4.222,4.222,0,0,0,245.083,0Z" transform="translate(-240.861)" fill="#fff"/></g><g transform="translate(120.083 3.053)"><path d="M185.513,20.611l-2.621-6.934a4.222,4.222,0,1,0-7.9,2.986l2.621,6.934a4.222,4.222,0,0,0,7.9-2.986Z" transform="translate(-174.719 -10.947)" fill="#fff"/></g><g transform="translate(154.358 3.053)"><path d="M305.937,11.22a4.222,4.222,0,0,0-5.443,2.457l-2.621,6.934a4.222,4.222,0,1,0,7.9,2.985l2.621-6.934A4.222,4.222,0,0,0,305.937,11.22Z" transform="translate(-297.6 -10.946)" fill="#fff"/></g></g></svg>