<svg xmlns="http://www.w3.org/2000/svg" width="109" height="109" viewBox="0 0 109 109"><path d="M227.307,343.22a5.714,5.714,0,0,0,0,11.428,5.714,5.714,0,1,0,0-11.428Z" transform="translate(-174.476 -270.152)" fill="#fff"/><path d="M198.641,140c-10.018,0-14.619,5.936-14.619,9.944a4.256,4.256,0,0,0,4.452,4.23c4.007,0,2.375-5.714,9.944-5.714,3.71,0,6.679,1.633,6.679,5.046,0,4.007-4.156,6.308-6.6,8.386-2.152,1.855-4.972,4.9-4.972,11.28,0,3.859,1.039,4.972,4.081,4.972,3.636,0,4.378-1.632,4.378-3.042,0-3.859.075-6.085,4.156-9.276,2-1.558,8.311-6.6,8.311-13.58S208.139,140,198.641,140Z" transform="translate(-144.845 -110.197)" fill="#fff"/><path d="M54.5,0A54.47,54.47,0,0,0,0,54.5v50.242A4.258,4.258,0,0,0,4.258,109H54.5a54.5,54.5,0,0,0,0-109Zm0,100.484H8.516V54.5A45.984,45.984,0,1,1,54.5,100.484Z" fill="#fff"/></svg>